<svg width="18" height="18" viewBox="0 0 18 18" fill="none" xmlns="http://www.w3.org/2000/svg">
<rect width="18" height="18" fill="white"/>
<path fill-rule="evenodd" clip-rule="evenodd" d="M4.69723 2.59191C5.3088 2.16614 6.12275 2.44677 6.5056 3.08608C7.52693 4.79157 9.07348 7.05446 10.0342 7.98202C11.428 9.32778 13.2914 10.5027 14.9588 11.4758C15.585 11.8413 15.8476 12.6297 15.4392 13.2287C14.0557 15.2583 11.7253 16.5908 9.0838 16.5908C4.83875 16.5908 1.39746 13.1495 1.39746 8.90445C1.39746 6.29002 2.70277 3.98045 4.69723 2.59191Z" fill="#171B1D"/>
<path fill-rule="evenodd" clip-rule="evenodd" d="M4.26551 3.7362C3.98682 5.42611 3.63942 7.53267 4.25792 9.58686C4.75321 11.2319 5.93495 12.8291 7.91941 13.5838C9.36523 14.1336 11.9782 14.035 14.269 13.7092C14.848 13.6268 15.3748 13.3081 15.6577 12.7962C16.2658 11.6957 16.612 10.4302 16.612 9.0838C16.612 4.83875 13.1707 1.39746 8.92567 1.39746C7.54988 1.39746 6.25852 1.75892 5.14137 2.39205C4.6524 2.66916 4.35696 3.18165 4.26551 3.7362V3.7362Z" fill="#C6C7C7"/>
<path fill-rule="evenodd" clip-rule="evenodd" d="M4.27195 3.71128L4.27195 3.71128L4.30533 3.50851C4.37667 3.07347 4.60815 2.67402 4.98582 2.44662C5.14282 2.3521 5.31815 2.29183 5.49872 2.26058L5.9548 2.18164C6.15365 2.30219 6.3281 2.47492 6.45504 2.68721C7.49485 4.42619 9.07834 6.74508 10.0605 7.69335C11.4854 9.06914 13.3923 10.2696 15.0953 11.2628C15.7216 11.628 15.984 12.4163 15.5773 13.0165C15.4202 13.2485 15.2509 13.4716 15.0704 13.685C14.8845 13.7738 14.683 13.8342 14.4746 13.8639C12.138 14.1976 9.46825 14.2998 7.99254 13.7386C5.97186 12.9702 4.76855 11.3438 4.26421 9.66874C3.63443 7.57705 3.98817 5.43204 4.27195 3.71128Z" fill="#6E7172"/>
<path d="M5.03113 2.43145C5.05032 2.42121 5.07144 2.41069 5.09426 2.40013C5.57086 2.16556 6.10156 1.945 6.28889 1.90039L6.5684 2.26374L6.40069 2.54325C6.02585 2.10593 5.40373 2.25691 5.09426 2.40013C5.0731 2.41055 5.05204 2.42099 5.03113 2.43145Z" fill="#C6C7C7"/>
</svg>
