<svg width="32" height="32" viewBox="0 0 32 32" fill="none" xmlns="http://www.w3.org/2000/svg">
<g clip-path="url(#clip0_1487_40067)">
<path d="M32 0H0V32H32V0Z" fill="white"/>
<path fill-rule="evenodd" clip-rule="evenodd" d="M8.35063 4.60789C9.43787 3.85097 10.8849 4.34986 11.5655 5.48641C13.3812 8.5184 16.1306 12.5413 17.8386 14.1903C20.3164 16.5828 23.6292 18.6715 26.5934 20.4015C27.7067 21.0512 28.1735 22.4528 27.4475 23.5177C24.9879 27.1259 20.845 29.4948 16.149 29.4948C8.60222 29.4948 2.48438 23.3769 2.48438 15.8302C2.48438 11.1823 4.80493 7.07641 8.35063 4.60789Z" fill="#171B1D"/>
<path fill-rule="evenodd" clip-rule="evenodd" d="M7.58378 6.64214C7.08833 9.64642 6.47073 13.3914 7.57029 17.0433C8.45081 19.9678 10.5517 22.8073 14.0796 24.149C16.65 25.1264 21.2952 24.9511 25.3678 24.3719C26.3971 24.2254 27.3336 23.6588 27.8366 22.7488C28.9176 20.7924 29.5331 18.5426 29.5331 16.149C29.5331 8.60222 23.4152 2.48438 15.8685 2.48438C13.4227 2.48438 11.1269 3.12697 9.14087 4.25254C8.27159 4.74518 7.74636 5.65627 7.58378 6.64214Z" fill="#C6C7C7"/>
<path fill-rule="evenodd" clip-rule="evenodd" d="M7.59523 6.59778L7.65457 6.2373C7.7814 5.46389 8.19292 4.75376 8.86433 4.34949C9.14344 4.18146 9.45514 4.07431 9.77616 4.01876L10.587 3.87842C10.9405 4.09273 11.2506 4.3998 11.4763 4.77721C13.3248 7.86873 16.1399 11.9912 17.886 13.677C20.4191 16.1229 23.8092 18.257 26.8367 20.0227C27.9502 20.6719 28.4167 22.0734 27.6936 23.1404C27.4143 23.5528 27.1134 23.9495 26.7925 24.3288C26.462 24.4867 26.1038 24.5941 25.7333 24.6469C21.5793 25.2401 16.8331 25.4218 14.2096 24.4241C10.6173 23.0581 8.47808 20.1667 7.58147 17.1888C6.46186 13.4703 7.09073 9.65691 7.59523 6.59778Z" fill="#6E7172"/>
<path d="M8.94434 4.32252C8.97845 4.30432 9.016 4.28562 9.05657 4.26684C9.90386 3.84983 10.8473 3.45772 11.1804 3.37842L11.6773 4.02437L11.3791 4.52128C10.7127 3.74382 9.60674 4.01223 9.05657 4.26684C9.01895 4.28537 8.98151 4.30393 8.94434 4.32252Z" fill="#C6C7C7"/>
</g>
<defs>
<clipPath id="clip0_1487_40067">
<rect width="32" height="32" fill="white"/>
</clipPath>
</defs>
</svg>
