<svg width="18" height="18" viewBox="0 0 18 18" fill="none" xmlns="http://www.w3.org/2000/svg">
<g clip-path="url(#clip0_1057_40060)">
<path d="M15.4999 5H6.49994C6.36733 5 6.24015 5.05268 6.14639 5.14645C6.05262 5.24021 5.99994 5.36739 5.99994 5.5V16.5C5.99994 16.6326 6.05262 16.7598 6.14639 16.8536C6.24015 16.9473 6.36733 17 6.49994 17H15.4999C15.6325 17 15.7597 16.9473 15.8535 16.8536C15.9473 16.7598 15.9999 16.6326 15.9999 16.5V5.5C15.9999 5.36739 15.9473 5.24021 15.8535 5.14645C15.7597 5.05268 15.6325 5 15.4999 5ZM13.9999 12.5C13.9999 12.7761 13.7761 13 13.4999 13H8.49994C8.2238 13 7.99994 12.7761 7.99994 12.5V12.5C7.99994 12.2239 8.2238 12 8.49994 12H13.4999C13.7761 12 13.9999 12.2239 13.9999 12.5V12.5ZM13.9999 10.5C13.9999 10.7761 13.7761 11 13.4999 11H8.49994C8.2238 11 7.99994 10.7761 7.99994 10.5V10.5C7.99994 10.2239 8.2238 10 8.49994 10H13.4999C13.7761 10 13.9999 10.2239 13.9999 10.5V10.5ZM13.9999 8.5C13.9999 8.77614 13.7761 9 13.4999 9H8.49994C8.2238 9 7.99994 8.77614 7.99994 8.5V8.5C7.99994 8.22386 8.2238 8 8.49994 8H13.4999C13.7761 8 13.9999 8.22386 13.9999 8.5V8.5Z" fill="black"/>
<path d="M2.99994 12V2.47368C2.99994 2.21208 3.21201 2 3.47362 2H11.4999C11.7761 2 11.9999 1.77614 11.9999 1.5V1.5C11.9999 1.36739 11.9473 1.24021 11.8535 1.14645C11.7597 1.05268 11.6325 1 11.4999 1H2.49994C2.36733 1 2.24015 1.05268 2.14639 1.14645C2.05262 1.24021 1.99994 1.36739 1.99994 1.5V12.5C1.99994 12.6326 2.05262 12.7598 2.14639 12.8536C2.24015 12.9473 2.36733 13 2.49994 13V13C2.77608 13 2.99994 12.7761 2.99994 12.5V12Z" fill="black"/>
<path d="M5 14.0001V4.47375C5 4.21214 5.21208 4.00006 5.47368 4.00006H13.5C13.7761 4.00006 14 3.7762 14 3.50006V3.50006C14 3.36745 13.9473 3.24028 13.8536 3.14651C13.7598 3.05274 13.6326 3.00006 13.5 3.00006H4.5C4.36739 3.00006 4.24021 3.05274 4.14645 3.14651C4.05268 3.24028 4 3.36745 4 3.50006V14.5001C4 14.6327 4.05268 14.7598 4.14645 14.8536C4.24021 14.9474 4.36739 15.0001 4.5 15.0001V15.0001C4.77614 15.0001 5 14.7762 5 14.5001V14.0001Z" fill="black"/>
</g>
<defs>
<clipPath id="clip0_1057_40060">
<rect width="18" height="18" fill="white"/>
</clipPath>
</defs>
</svg>
