<svg width="68" height="68" viewBox="0 0 68 68" fill="none" xmlns="http://www.w3.org/2000/svg">
<rect width="68" height="68" rx="10" fill="#FFF8F6"/>
<g clip-path="url(#clip0_1067_40083)">
<path d="M41.8056 29.3889H30.3056C30.1361 29.3889 29.9736 29.4562 29.8538 29.576C29.734 29.6959 29.6667 29.8584 29.6667 30.0278V44.0834C29.6667 44.2528 29.734 44.4153 29.8538 44.5351C29.9736 44.6549 30.1361 44.7222 30.3056 44.7222H41.8056C41.975 44.7222 42.1375 44.6549 42.2573 44.5351C42.3772 44.4153 42.4445 44.2528 42.4445 44.0834V30.0278C42.4445 29.8584 42.3772 29.6959 42.2573 29.576C42.1375 29.4562 41.975 29.3889 41.8056 29.3889ZM39.8889 38.9722C39.8889 39.3251 39.6029 39.6111 39.25 39.6111H32.8611C32.5083 39.6111 32.2222 39.3251 32.2222 38.9722V38.9722C32.2222 38.6194 32.5083 38.3334 32.8611 38.3334H39.25C39.6029 38.3334 39.8889 38.6194 39.8889 38.9722V38.9722ZM39.8889 36.4167C39.8889 36.7695 39.6029 37.0556 39.25 37.0556H32.8611C32.5083 37.0556 32.2222 36.7695 32.2222 36.4167V36.4167C32.2222 36.0638 32.5083 35.7778 32.8611 35.7778H39.25C39.6029 35.7778 39.8889 36.0638 39.8889 36.4167V36.4167ZM39.8889 33.8611C39.8889 34.214 39.6029 34.5 39.25 34.5H32.8611C32.5083 34.5 32.2222 34.214 32.2222 33.8611V33.8611C32.2222 33.5083 32.5083 33.2222 32.8611 33.2222H39.25C39.6029 33.2222 39.8889 33.5083 39.8889 33.8611V33.8611Z" fill="#DB4723"/>
<path d="M25.8333 38.3334V26.0556C25.8333 25.7795 26.0572 25.5556 26.3333 25.5556H36.6944C37.0473 25.5556 37.3333 25.2696 37.3333 24.9167V24.9167C37.3333 24.7473 37.266 24.5848 37.1462 24.465C37.0264 24.3451 36.8639 24.2778 36.6944 24.2778H25.1944C25.025 24.2778 24.8625 24.3451 24.7427 24.465C24.6229 24.5848 24.5555 24.7473 24.5555 24.9167V38.9723C24.5555 39.1417 24.6229 39.3042 24.7427 39.424C24.8625 39.5439 25.025 39.6112 25.1944 39.6112V39.6112C25.5473 39.6112 25.8333 39.3251 25.8333 38.9723V38.3334Z" fill="#DB4723"/>
<path d="M28.3889 40.8889V28.6112C28.3889 28.335 28.6127 28.1112 28.8889 28.1112H39.25C39.6028 28.1112 39.8889 27.8251 39.8889 27.4723V27.4723C39.8889 27.3028 39.8216 27.1403 39.7017 27.0205C39.5819 26.9007 39.4194 26.8334 39.25 26.8334H27.75C27.5805 26.8334 27.418 26.9007 27.2982 27.0205C27.1784 27.1403 27.1111 27.3028 27.1111 27.4723V41.5278C27.1111 41.6973 27.1784 41.8598 27.2982 41.9796C27.418 42.0994 27.5805 42.1667 27.75 42.1667V42.1667C28.1028 42.1667 28.3889 41.8807 28.3889 41.5278V40.8889Z" fill="#DB4723"/>
</g>
<defs>
<clipPath id="clip0_1067_40083">
<rect width="23" height="23" fill="white" transform="translate(22 23)"/>
</clipPath>
</defs>
</svg>
