<svg width="16" height="16" viewBox="0 0 16 16" fill="none" xmlns="http://www.w3.org/2000/svg">
<path d="M2.66667 6.66667C2.66667 6.48986 2.7369 6.32029 2.86193 6.19526C2.98695 6.07024 3.15652 6 3.33333 6H6V3.33333C6 3.15652 6.07024 2.98695 6.19526 2.86193C6.32029 2.7369 6.48986 2.66667 6.66667 2.66667C6.84348 2.66667 7.01305 2.7369 7.13807 2.86193C7.2631 2.98695 7.33333 3.15652 7.33333 3.33333V6H10C10.1768 6 10.3464 6.07024 10.4714 6.19526C10.5964 6.32029 10.6667 6.48986 10.6667 6.66667C10.6667 6.84348 10.5964 7.01305 10.4714 7.13807C10.3464 7.2631 10.1768 7.33333 10 7.33333H7.33333V10C7.33333 10.1768 7.2631 10.3464 7.13807 10.4714C7.01305 10.5964 6.84348 10.6667 6.66667 10.6667C6.48986 10.6667 6.32029 10.5964 6.19526 10.4714C6.07024 10.3464 6 10.1768 6 10V7.33333H3.33333C3.15652 7.33333 2.98695 7.2631 2.86193 7.13807C2.7369 7.01305 2.66667 6.84348 2.66667 6.66667ZM2.66667 0C1.95942 0 1.28115 0.280951 0.781048 0.781048C0.280951 1.28115 0 1.95942 0 2.66667V10.6667C0 11.3739 0.280951 12.0522 0.781048 12.5523C1.28115 13.0524 1.95942 13.3333 2.66667 13.3333H10.6667C11.3739 13.3333 12.0522 13.0524 12.5523 12.5523C13.0524 12.0522 13.3333 11.3739 13.3333 10.6667V2.66667C13.3333 1.95942 13.0524 1.28115 12.5523 0.781048C12.0522 0.280951 11.3739 0 10.6667 0H2.66667ZM1.33333 2.66667C1.33333 2.31304 1.47381 1.97391 1.72386 1.72386C1.97391 1.47381 2.31304 1.33333 2.66667 1.33333H10.6667C11.0203 1.33333 11.3594 1.47381 11.6095 1.72386C11.8595 1.97391 12 2.31304 12 2.66667V10.6667C12 11.0203 11.8595 11.3594 11.6095 11.6095C11.3594 11.8595 11.0203 12 10.6667 12H2.66667C2.31304 12 1.97391 11.8595 1.72386 11.6095C1.47381 11.3594 1.33333 11.0203 1.33333 10.6667V2.66667ZM11.3333 14.6667C12.2174 14.6667 13.0652 14.3155 13.6904 13.6904C14.3155 13.0652 14.6667 12.2174 14.6667 11.3333V1.69067C15.072 1.92471 15.4087 2.26133 15.6427 2.6667C15.8768 3.07208 16 3.53191 16 4V11.3333C16 12.571 15.5083 13.758 14.6332 14.6332C13.758 15.5083 12.571 16 11.3333 16H4C3.53191 16 3.07208 15.8768 2.6667 15.6427C2.26133 15.4087 1.92471 15.072 1.69067 14.6667H11.3333Z" fill="white"/>
</svg>
