<svg width="161" height="65" viewBox="0 0 161 65" fill="none" xmlns="http://www.w3.org/2000/svg">
<path d="M73.6017 41.167V27.6585H80.2016C81.8998 27.6585 83.1735 27.9801 84.0226 28.6234C84.8845 29.2666 85.3155 30.1158 85.3155 31.1707C85.3155 31.8783 85.1418 32.4958 84.7945 33.0233C84.4471 33.5379 83.9711 33.9367 83.3664 34.2198C82.7618 34.5028 82.0671 34.6443 81.2823 34.6443L81.6489 33.8531C82.498 33.8531 83.2507 33.9946 83.9068 34.2777C84.5629 34.5478 85.0711 34.9531 85.4313 35.4934C85.8044 36.0338 85.9909 36.6963 85.9909 37.4811C85.9909 38.639 85.5342 39.546 84.6208 40.2021C83.7074 40.8454 82.363 41.167 80.5875 41.167H73.6017ZM76.7087 38.8127H80.356C81.1665 38.8127 81.7776 38.684 82.1893 38.4267C82.6138 38.1565 82.8261 37.732 82.8261 37.153C82.8261 36.587 82.6138 36.1688 82.1893 35.8987C81.7776 35.6156 81.1665 35.4741 80.356 35.4741H76.4771V33.197H79.8156C80.5747 33.197 81.1536 33.0683 81.5524 32.811C81.9641 32.5408 82.17 32.1356 82.17 31.5953C82.17 31.0678 81.9641 30.6754 81.5524 30.4181C81.1536 30.1479 80.5747 30.0128 79.8156 30.0128H76.7087V38.8127ZM92.5261 41.3214C91.6642 41.3214 90.8923 41.1541 90.2104 40.8196C89.5414 40.4851 89.0204 39.977 88.6473 39.2951C88.2742 38.6004 88.0876 37.7191 88.0876 36.6513V30.7847H91.0981V36.2074C91.0981 37.0694 91.2782 37.7062 91.6384 38.1179C92.0115 38.5168 92.5326 38.7162 93.2016 38.7162C93.6647 38.7162 94.0764 38.6197 94.4366 38.4267C94.7969 38.2209 95.0799 37.9121 95.2857 37.5004C95.4916 37.0758 95.5945 36.5484 95.5945 35.918V30.7847H98.605V41.167H95.7489V38.3109L96.2699 39.1407C95.9226 39.8612 95.408 40.4079 94.7261 40.781C94.0571 41.1413 93.3238 41.3214 92.5261 41.3214ZM101.394 41.167V26.848H104.404V41.167H101.394ZM109.688 39.0442L109.765 35.3776L114.609 30.7847H118.198L113.547 35.5127L111.984 36.7864L109.688 39.0442ZM107.198 41.167V26.848H110.209V41.167H107.198ZM114.937 41.167L111.425 36.8057L113.316 34.4706L118.584 41.167H114.937ZM119.881 41.167V30.7847H122.757V33.718L122.352 32.8689C122.66 32.1356 123.156 31.5824 123.838 31.2093C124.519 30.8233 125.349 30.6304 126.327 30.6304V33.4093C126.198 33.3964 126.082 33.39 125.98 33.39C125.877 33.3771 125.767 33.3707 125.652 33.3707C124.828 33.3707 124.159 33.6087 123.645 34.0847C123.143 34.5478 122.892 35.2747 122.892 36.2653V41.167H119.881ZM129.787 45.0652C129.247 45.0652 128.713 44.9815 128.186 44.8143C127.658 44.647 127.227 44.4155 126.893 44.1196L127.993 41.9775C128.224 42.1833 128.488 42.3442 128.784 42.4599C129.093 42.5757 129.395 42.6336 129.691 42.6336C130.115 42.6336 130.45 42.5307 130.694 42.3249C130.952 42.1319 131.183 41.8038 131.389 41.3407L131.929 40.067L132.161 39.739L135.885 30.7847H138.78L134.091 41.8038C133.756 42.6401 133.37 43.2962 132.933 43.7722C132.508 44.2482 132.032 44.5827 131.505 44.7757C130.99 44.9687 130.418 45.0652 129.787 45.0652ZM131.563 41.5722L126.931 30.7847H130.038L133.628 39.4688L131.563 41.5722ZM146.145 41.3214C145.27 41.3214 144.505 41.1284 143.849 40.7424C143.193 40.3565 142.678 39.7711 142.305 38.9863C141.945 38.1887 141.765 37.1852 141.765 35.9759C141.765 34.7537 141.938 33.7502 142.286 32.9654C142.633 32.1806 143.135 31.5953 143.791 31.2093C144.447 30.8233 145.232 30.6304 146.145 30.6304C147.123 30.6304 147.998 30.8555 148.77 31.3058C149.555 31.7432 150.172 32.3607 150.622 33.1584C151.085 33.956 151.317 34.8952 151.317 35.9759C151.317 37.0694 151.085 38.015 150.622 38.8127C150.172 39.6103 149.555 40.2278 148.77 40.6652C147.998 41.1027 147.123 41.3214 146.145 41.3214ZM140.009 44.9108V30.7847H142.884V32.9075L142.826 35.9952L143.019 39.0635V44.9108H140.009ZM145.624 38.8512C146.126 38.8512 146.57 38.7355 146.956 38.5039C147.355 38.2723 147.67 37.9442 147.901 37.5197C148.146 37.0823 148.268 36.5677 148.268 35.9759C148.268 35.3712 148.146 34.8566 147.901 34.432C147.67 34.0075 147.355 33.6794 146.956 33.4478C146.57 33.2163 146.126 33.1005 145.624 33.1005C145.122 33.1005 144.672 33.2163 144.273 33.4478C143.875 33.6794 143.559 34.0075 143.328 34.432C143.096 34.8566 142.98 35.3712 142.98 35.9759C142.98 36.5677 143.096 37.0823 143.328 37.5197C143.559 37.9442 143.875 38.2723 144.273 38.5039C144.672 38.7355 145.122 38.8512 145.624 38.8512ZM157.578 41.3214C156.356 41.3214 155.404 41.0126 154.722 40.3951C154.04 39.7647 153.699 38.832 153.699 37.5969V28.4883H156.709V37.5583C156.709 37.9957 156.825 38.3366 157.057 38.5811C157.288 38.8127 157.604 38.9284 158.002 38.9284C158.478 38.9284 158.884 38.7998 159.218 38.5425L160.029 40.6652C159.72 40.884 159.347 41.0512 158.909 41.167C158.485 41.2699 158.041 41.3214 157.578 41.3214ZM152.097 33.3321V31.0163H159.295V33.3321H152.097Z" fill="black"/>
<circle cx="32.0204" cy="32.0204" r="32.0204" fill="#DB4723"/>
<path fill-rule="evenodd" clip-rule="evenodd" d="M17.9291 13.7758C24.317 6.64672 31.6832 7.09347 40.3915 11.0677C48.7742 14.8933 58.2343 25.554 57.4255 34.7329C56.5812 44.3155 49.8474 49.3519 40.3915 51.1189C31.6144 52.759 19.5162 52.0551 14.9138 44.4037C9.99879 36.2325 11.5658 20.8775 17.9291 13.7758Z" fill="url(#paint0_linear_1057_40076)"/>
<path d="M34 36.171H28C27.7348 36.171 27.4804 36.2763 27.2929 36.4639C27.1054 36.6514 27 36.9058 27 37.171C27 37.4362 27.1054 37.6905 27.2929 37.8781C27.4804 38.0656 27.7348 38.171 28 38.171H34C34.2652 38.171 34.5196 38.0656 34.7071 37.8781C34.8947 37.6905 35 37.4362 35 37.171C35 36.9058 34.8947 36.6514 34.7071 36.4639C34.5196 36.2763 34.2652 36.171 34 36.171ZM30 30.171H32C32.2652 30.171 32.5196 30.0656 32.7071 29.8781C32.8947 29.6905 33 29.4362 33 29.171C33 28.9058 32.8947 28.6514 32.7071 28.4639C32.5196 28.2763 32.2652 28.171 32 28.171H30C29.7348 28.171 29.4804 28.2763 29.2929 28.4639C29.1054 28.6514 29 28.9058 29 29.171C29 29.4362 29.1054 29.6905 29.2929 29.8781C29.4804 30.0656 29.7348 30.171 30 30.171V30.171ZM42 32.171H39V23.171C39.0007 22.9948 38.9548 22.8215 38.867 22.6687C38.7792 22.5159 38.6526 22.3891 38.5 22.301C38.348 22.2132 38.1755 22.167 38 22.167C37.8245 22.167 37.652 22.2132 37.5 22.301L34.5 24.021L31.5 22.301C31.348 22.2132 31.1755 22.167 31 22.167C30.8245 22.167 30.652 22.2132 30.5 22.301L27.5 24.021L24.5 22.301C24.348 22.2132 24.1755 22.167 24 22.167C23.8245 22.167 23.652 22.2132 23.5 22.301C23.3474 22.3891 23.2208 22.5159 23.133 22.6687C23.0452 22.8215 22.9993 22.9948 23 23.171V39.171C23 39.9666 23.3161 40.7297 23.8787 41.2923C24.4413 41.8549 25.2044 42.171 26 42.171H40C40.7957 42.171 41.5587 41.8549 42.1213 41.2923C42.6839 40.7297 43 39.9666 43 39.171V33.171C43 32.9058 42.8947 32.6514 42.7071 32.4639C42.5196 32.2763 42.2652 32.171 42 32.171ZM26 40.171C25.7348 40.171 25.4804 40.0656 25.2929 39.8781C25.1054 39.6905 25 39.4362 25 39.171V24.901L27 26.041C27.1543 26.1216 27.3259 26.1637 27.5 26.1637C27.6741 26.1637 27.8457 26.1216 28 26.041L31 24.321L34 26.041C34.1543 26.1216 34.3259 26.1637 34.5 26.1637C34.6741 26.1637 34.8457 26.1216 35 26.041L37 24.901V39.171C37.0027 39.5121 37.0636 39.8503 37.18 40.171H26ZM41 39.171C41 39.4362 40.8947 39.6905 40.7071 39.8781C40.5196 40.0656 40.2652 40.171 40 40.171C39.7348 40.171 39.4804 40.0656 39.2929 39.8781C39.1054 39.6905 39 39.4362 39 39.171V34.171H41V39.171ZM34 32.171H28C27.7348 32.171 27.4804 32.2763 27.2929 32.4639C27.1054 32.6514 27 32.9058 27 33.171C27 33.4362 27.1054 33.6905 27.2929 33.8781C27.4804 34.0656 27.7348 34.171 28 34.171H34C34.2652 34.171 34.5196 34.0656 34.7071 33.8781C34.8947 33.6905 35 33.4362 35 33.171C35 32.9058 34.8947 32.6514 34.7071 32.4639C34.5196 32.2763 34.2652 32.171 34 32.171Z" fill="white"/>
<defs>
<linearGradient id="paint0_linear_1057_40076" x1="70.0919" y1="39.9432" x2="21.1919" y2="50.2925" gradientUnits="userSpaceOnUse">
<stop stop-color="white"/>
<stop offset="1" stop-color="#DB4723"/>
</linearGradient>
</defs>
</svg>
