<svg width="18" height="18" viewBox="0 0 24 24" fill="none" xmlns="http://www.w3.org/2000/svg">
<path d="M8.14293 11.9999C8.64945 11.9999 9.15102 11.9002 9.61899 11.7063C10.087 11.5125 10.5122 11.2284 10.8703 10.8702C11.2285 10.512 11.5126 10.0868 11.7065 9.61885C11.9003 9.15088 12.0001 8.64931 12.0001 8.14279C12.0001 7.63626 11.9003 7.13469 11.7065 6.66672C11.5126 6.19875 11.2285 5.77354 10.8703 5.41538C10.5122 5.05721 10.087 4.77309 9.61899 4.57925C9.15102 4.38541 8.64945 4.28564 8.14293 4.28564C7.11995 4.28564 6.13887 4.69202 5.41551 5.41538C4.69216 6.13873 4.28578 7.11981 4.28578 8.14279C4.28578 9.16577 4.69216 10.1468 5.41551 10.8702C6.13887 11.5936 7.11995 11.9999 8.14293 11.9999V11.9999ZM14.6572 18.5305C15.3112 18.7319 16.1264 18.8571 17.1429 18.8571C22.2858 18.8571 22.2858 15.6428 22.2858 15.6428C22.2858 15.1313 22.0826 14.6408 21.7209 14.2791C21.3592 13.9174 20.8687 13.7142 20.3572 13.7142H14.6521C15.1502 14.2325 15.428 14.9239 15.4269 15.6428V16.1185L15.4244 16.1896C15.4062 16.4759 15.362 16.7599 15.2924 17.0382C15.16 17.5654 14.946 18.0686 14.6581 18.5296L14.6572 18.5305ZM20.1429 8.99993C20.1429 9.3939 20.0653 9.784 19.9146 10.148C19.7638 10.512 19.5428 10.8427 19.2642 11.1213C18.9857 11.3998 18.655 11.6208 18.291 11.7716C17.927 11.9223 17.5369 11.9999 17.1429 11.9999C16.749 11.9999 16.3589 11.9223 15.9949 11.7716C15.6309 11.6208 15.3002 11.3998 15.0216 11.1213C14.743 10.8427 14.5221 10.512 14.3713 10.148C14.2205 9.784 14.1429 9.3939 14.1429 8.99993C14.1429 8.20428 14.459 7.44122 15.0216 6.87861C15.5842 6.316 16.3473 5.99993 17.1429 5.99993C17.9386 5.99993 18.7016 6.316 19.2642 6.87861C19.8269 7.44122 20.1429 8.20428 20.1429 8.99993V8.99993ZM1.71436 15.6428C1.71436 15.1313 1.91754 14.6408 2.27922 14.2791C2.6409 13.9174 3.13144 13.7142 3.64293 13.7142H12.6429C13.1544 13.7142 13.645 13.9174 14.0066 14.2791C14.3683 14.6408 14.5715 15.1313 14.5715 15.6428V16.0714C14.5715 16.0714 14.5715 20.5714 8.14293 20.5714C1.71436 20.5714 1.71436 16.0714 1.71436 16.0714V15.6428Z" fill="black"/>
</svg>
