<svg width="18" height="18" viewBox="0 0 19 19" fill="none" xmlns="http://www.w3.org/2000/svg">
<path d="M11.875 2.375C11.875 1.06504 10.81 0 9.5 0C8.19004 0 7.125 1.06504 7.125 2.375C7.125 3.68496 8.19004 4.75 9.5 4.75C10.81 4.75 11.875 3.68496 11.875 2.375ZM8.3125 5.9375C7.00254 5.9375 5.9375 7.00254 5.9375 8.3125V10.0938C5.9375 10.7506 6.46816 11.2812 7.125 11.2812H7.1918L7.60371 14.9736C7.67051 15.5748 8.17891 16.0312 8.78379 16.0312H10.2199C10.8248 16.0312 11.3332 15.5748 11.4 14.9736L11.8082 11.2812H11.875C12.5318 11.2812 13.0625 10.7506 13.0625 10.0938V8.3125C13.0625 7.00254 11.9975 5.9375 10.6875 5.9375H8.3125V5.9375ZM4.90957 14.6285C5.39199 14.5395 5.71484 14.0756 5.62578 13.5932C5.53672 13.1107 5.07285 12.7879 4.59043 12.877C3.38809 13.0959 2.33047 13.4039 1.54746 13.7973C1.15781 13.9939 0.794141 14.2314 0.51582 14.5246C0.2375 14.8252 0 15.2334 0 15.7344C0 16.5285 0.575195 17.074 1.07988 17.4043C1.62539 17.7605 2.35273 18.0463 3.17285 18.2727C4.83164 18.7291 7.06563 19 9.5 19C11.9344 19 14.1684 18.7291 15.8234 18.2727C16.6436 18.0463 17.3746 17.7605 17.9164 17.4043C18.4248 17.074 18.9963 16.5285 18.9963 15.7344C18.9963 15.2334 18.7588 14.8252 18.4768 14.5246C18.1984 14.2314 17.8348 13.9939 17.4451 13.7973C16.6658 13.4039 15.6082 13.0959 14.4021 12.877C13.9197 12.7879 13.4559 13.1107 13.3668 13.5932C13.2777 14.0756 13.6006 14.5395 14.083 14.6285C15.2037 14.8326 16.0758 15.1035 16.6436 15.3893C16.7623 15.4486 16.8588 15.5043 16.9367 15.5563C17.0703 15.6453 17.0703 15.8234 16.9367 15.9125C16.6102 16.124 16.0795 16.3504 15.341 16.5545C13.89 16.959 11.8193 17.2188 9.5 17.2188C7.18066 17.2188 5.10996 16.959 3.64785 16.5545C2.90938 16.3504 2.37871 16.124 2.05215 15.9125C1.91855 15.8234 1.91855 15.6453 2.05215 15.5563C2.13008 15.5043 2.23027 15.4486 2.34531 15.3893C2.91309 15.1035 3.78516 14.8363 4.90586 14.6285H4.90957Z" fill="black"/>
</svg>
