<svg width="227" height="50" viewBox="0 0 227 50" fill="none" xmlns="http://www.w3.org/2000/svg">
<path fill-rule="evenodd" clip-rule="evenodd" d="M3.99929 0.787437C5.1858 0.948768 6.35304 1.82415 6.56263 3.51377C6.61194 3.91125 6.59821 3.52397 6.61519 7.96369L6.63313 12.6298H3.39515C0.961567 12.6298 0.138091 12.6107 0.0807363 12.5534C-0.0227589 12.4499 -0.0286867 4.36491 0.0741677 3.69187C0.293975 2.25367 1.13298 1.04762 2.5574 0.787437C2.78522 0.745783 3.43855 0.721349 3.99929 0.787437ZM34.9675 0.519215C37.7214 1.31465 39.4741 2.93629 40.2868 5.44101C40.5849 6.35965 40.5732 5.71433 40.5732 21.1191V35.607H32.3566C23.4073 35.607 23.7148 35.5876 23.1266 35.983C22.4057 36.6238 22.4047 36.6587 22.3526 39.9068C22.3081 42.6754 22.2892 42.8849 22.0058 43.7321C19.8125 50.29 10.4605 50.2374 8.32057 43.6552C7.93671 42.4745 7.9585 43.7557 7.95834 22.4525C7.95801 6.18326 7.9436 2.89143 7.8707 2.54586C7.75599 2.00227 7.63471 1.69821 7.3944 1.37778C6.82599 0.619856 6.27982 0.416634 6.35304 0.367673C6.41119 0.216115 34.4393 0.366536 34.9675 0.519215ZM43.4457 37.1846C43.4474 39.705 43.4457 39.1071 43.4474 39.9068C43.4474 47.0374 43.4474 49.04 39.3621 49.04C38.7118 49.2215 20.2337 49.04 20.0551 49.04C18.9019 49.04 19.703 48.9599 20.5841 48.3191C21.3852 47.6783 22.7469 46.5568 23.2923 44.7945C23.8136 43.5873 23.8279 40.6963 23.8279 38.7267C23.8279 37.7922 23.7417 37.1846 24.5427 37.1846C33.2717 37.0295 32.6333 37.1846 43.4457 37.1846Z" fill="url(#paint0_linear_2041_40153)"/>
<rect width="18.2639" height="2.41375" rx="1.20687" transform="matrix(1 0 0 -1 15.085 28.8538)" fill="white"/>
<rect width="18.2639" height="2.41375" rx="1.20687" transform="matrix(1 0 0 -1 15.085 22.1252)" fill="white"/>
<rect width="8.20674" height="2.41375" rx="1.20687" transform="matrix(1 0 0 -1 20.2754 15.27)" fill="white"/>
<path d="M185.064 13.156C183.255 11.3471 181.07 10.4426 178.507 10.4426H169.312V36.5111H174.588V28.8712V23.5951V15.681H178.507C179.6 15.681 180.542 16.0956 181.333 16.8493C182.087 17.6407 182.464 18.5829 182.464 19.6381C182.464 20.731 182.087 21.6731 181.333 22.4646C180.542 23.2183 179.6 23.6328 178.507 23.6328H178.243V28.8712H178.507C181.07 28.8712 183.255 27.9668 185.064 26.1578C186.873 24.3866 187.778 22.2008 187.778 19.6381C187.778 17.1131 186.873 14.965 185.064 13.156Z" fill="black"/>
<path d="M202.319 20.5426V22.3892C200.849 20.844 199.191 20.0903 197.344 20.0903C195.196 20.0903 193.387 20.8817 191.955 22.4646C190.523 24.0851 189.807 26.0448 189.807 28.4567C189.807 30.8686 190.523 32.9037 191.955 34.5242C193.425 36.1447 195.234 36.9361 197.42 36.9361C199.191 36.9361 200.811 36.2201 202.319 34.788V36.4839H206.012V23.4821L202.319 20.5426ZM201.301 32.2253C200.472 33.1675 199.342 33.6574 197.985 33.6574C196.704 33.6574 195.648 33.1675 194.819 32.1876C193.99 31.2078 193.576 29.9641 193.576 28.4567C193.576 27.0246 194.028 25.8186 194.857 24.8388C195.686 23.8966 196.741 23.4067 198.023 23.4067C199.379 23.4067 200.472 23.8966 201.301 24.8388C202.13 25.8186 202.545 27.0246 202.545 28.532C202.545 30.0395 202.13 31.2455 201.301 32.2253Z" fill="black"/>
<path d="M221.813 20.5426L217.253 29.6626L219.288 33.5443L225.958 20.5426H221.813ZM217.253 29.7003L212.391 20.5426H208.095L215.293 33.5066L209.075 45.1517H213.258L219.288 33.469L217.253 29.6626V29.7003Z" fill="black"/>
<path d="M64.7529 13.156C62.9439 11.3471 60.7581 10.4426 58.1955 10.4426H49V36.7853H54.2761V28.8712V23.5951V15.681H58.1955C59.2884 15.681 60.2305 16.0956 61.0219 16.8493C61.7757 17.6407 62.1525 18.5829 62.1525 19.6381C62.1525 20.731 61.7757 21.6731 61.0219 22.4646C60.2305 23.2183 59.2884 23.6328 58.1955 23.6328H57.9317V28.8712H58.1955C60.7581 28.8712 62.9439 27.9668 64.7529 26.1578C66.5618 24.3866 67.4663 22.2008 67.4663 19.6381C67.4663 17.1131 66.5618 14.965 64.7529 13.156Z" fill="#DB4723"/>
<path d="M78.1604 20.0903C77.4443 20.0903 76.8036 20.2411 76.276 20.5049C75.7484 20.7687 75.1454 21.2586 74.4671 21.9746V20.5426H70.8115V36.4839H74.4671V28.1929C74.4671 25.178 75.4846 23.6705 77.482 23.6705C78.1604 23.6705 78.8387 23.8966 79.5171 24.4242L81.2129 21.0325C80.1577 20.3918 79.1402 20.0903 78.1604 20.0903Z" fill="#DB4723"/>
<path d="M97.8685 22.5399C96.2103 20.9194 94.1753 20.0903 91.801 20.0903C89.4268 20.0903 87.4294 20.8817 85.7712 22.5022C84.113 24.1228 83.3216 26.0824 83.3216 28.3813C83.3216 30.8309 84.113 32.866 85.7335 34.4865C87.354 36.107 89.3514 36.9361 91.7257 36.9361C94.1376 36.9361 96.1726 36.1447 97.8308 34.5242C99.489 32.9037 100.318 30.9063 100.318 28.532C100.318 26.1578 99.489 24.1604 97.8685 22.5399ZM95.2305 32.263C94.4014 33.1675 93.2331 33.6574 91.801 33.6574C90.3689 33.6574 89.2007 33.1675 88.3339 32.2253C87.5048 31.3208 87.0526 30.0395 87.0526 28.4567C87.0526 26.9869 87.5048 25.7433 88.3716 24.8011C89.2384 23.8966 90.4066 23.4067 91.801 23.4067C93.2331 23.4067 94.3637 23.8966 95.2305 24.8011C96.0973 25.7433 96.5495 26.9869 96.5495 28.532C96.5495 30.0772 96.0973 31.3208 95.2305 32.263Z" fill="#DB4723"/>
<path d="M108.328 20.5426V17.6407L104.635 14.7012V20.5426H103.09V23.972H104.635V36.4839H108.328V23.972H111.192V20.5426H108.328Z" fill="#DB4723"/>
<path d="M129.098 28.4944C129.098 25.8563 128.419 23.8213 127.063 22.3138C125.706 20.844 123.859 20.0903 121.523 20.0903C119.186 20.0903 117.302 20.844 115.908 22.3892C114.513 23.972 113.797 26.0071 113.797 28.532C113.797 31.057 114.551 33.0921 115.983 34.6372C117.415 36.1824 119.337 36.9361 121.711 36.9361C122.54 36.9361 123.294 36.8607 124.01 36.6723C124.726 36.4839 125.367 36.2201 126.008 35.8432C126.611 35.4663 127.515 34.7126 128.043 34.1096L125.819 31.057C125.065 32.2253 124.689 32.5645 124.123 32.979C123.52 33.4313 122.767 33.6574 121.824 33.6574C120.656 33.6574 119.676 33.2428 118.923 32.4891C118.169 31.7354 117.754 30.6802 117.679 29.3611H129.098V28.4944ZM117.905 26.3462C118.018 25.894 118.206 25.4795 118.433 25.1403C118.659 24.7634 118.923 24.4619 119.262 24.1981C119.563 23.9343 119.94 23.7459 120.317 23.6328C120.731 23.4821 121.146 23.4067 121.598 23.4067C123.558 23.4067 124.802 24.3866 125.291 26.3462H117.905Z" fill="#DB4723"/>
<path d="M144.362 20.5426V22.3892C142.893 20.844 141.235 20.0903 139.388 20.0903C137.24 20.0903 135.431 20.8817 133.999 22.4646C132.567 24.0851 131.851 26.0448 131.851 28.4567C131.851 30.8686 132.567 32.9037 133.999 34.5242C135.469 36.1447 137.277 36.9361 139.463 36.9361C141.235 36.9361 142.855 36.2201 144.362 34.788V36.4839H148.056V23.4821L144.362 20.5426ZM143.345 32.2253C142.516 33.1675 141.385 33.6574 140.029 33.6574C138.747 33.6574 137.692 33.1675 136.863 32.1876C136.034 31.2078 135.619 29.9641 135.619 28.4567C135.619 27.0246 136.072 25.8186 136.901 24.8388C137.73 23.8966 138.785 23.4067 140.066 23.4067C141.423 23.4067 142.516 23.8966 143.345 24.8388C144.174 25.8186 144.589 27.0246 144.589 28.532C144.589 30.0395 144.174 31.2455 143.345 32.2253Z" fill="#DB4723"/>
<path d="M163.791 21.8239C162.773 20.6556 161.303 20.0903 159.457 20.0903C157.836 20.0903 156.404 20.731 155.123 22.0123V20.5426H151.43V36.4839H155.123V28.7959C155.123 26.7985 155.349 25.4041 155.877 24.6127C156.366 23.7836 157.233 23.4067 158.477 23.4067C159.57 23.4067 160.361 23.7082 160.776 24.3112C161.228 24.9142 161.454 26.0071 161.454 27.5522V36.4839H165.147V26.6854C165.147 24.4619 164.695 22.8414 163.791 21.8239Z" fill="#DB4723"/>
<defs>
<linearGradient id="paint0_linear_2041_40153" x1="21.7237" y1="0.304687" x2="21.7237" y2="49.1207" gradientUnits="userSpaceOnUse">
<stop stop-color="#FF4215"/>
<stop offset="1" stop-color="#A42B0E"/>
</linearGradient>
</defs>
</svg>
