<svg width="13" height="17" viewBox="0 0 13 17" fill="none" xmlns="http://www.w3.org/2000/svg">
<path fill-rule="evenodd" clip-rule="evenodd" d="M0 8.45283V16.1057C0 16.5475 0.358172 16.9057 0.8 16.9057H6.49275H12.1855C12.6273 16.9057 12.9855 16.5475 12.9855 16.1057V10.855V5.60429C12.9855 5.16246 12.6273 4.80429 12.1855 4.80429H10.6883C9.42483 4.80429 8.35788 4.7916 8.31733 4.77614C8.11731 4.69977 8.11025 4.6133 8.11025 2.24578V0.8C8.11025 0.358172 7.75207 0 7.31025 0H4.05512H0.8C0.358172 0 0 0.358172 0 0.8V8.45283ZM8.93038 2.23558V3.54377C8.93038 3.8144 9.14977 4.03379 9.4204 4.03379H10.7634H11.5332C11.8661 4.03379 12.0589 3.59615 11.8322 3.35238C11.5042 2.99981 11.0786 2.5517 10.6276 2.10786L9.55569 1.05286C9.32334 0.824174 8.93038 0.988777 8.93038 1.31479V2.23558ZM7.03486 6.89085C8.35387 7.08048 9.51391 8.05367 9.94079 9.32866C10.0794 9.7426 10.0877 9.80537 10.0899 10.4471C10.0919 11.0372 10.0782 11.1717 9.98549 11.4668C9.59078 12.7237 8.6786 13.6069 7.40402 13.9665C6.88915 14.1118 6.09635 14.1118 5.58149 13.9665C4.32317 13.6115 3.40179 12.7248 3.00758 11.4895C2.87094 11.0614 2.83353 10.2164 2.93099 9.76068C3.33928 7.85193 5.10955 6.61401 7.03486 6.89085ZM5.74625 7.75231C5.2784 7.87419 4.86524 8.11816 4.48907 8.49462C4.1442 8.8398 3.94705 9.16817 3.77951 9.67656C3.69659 9.9282 3.67522 10.093 3.67636 10.473C3.67809 11.0654 3.81696 11.5272 4.14238 12.0231C4.78322 12.9996 6.03097 13.4805 7.17124 13.1904C8.1344 12.9453 8.8553 12.2786 9.19 11.3234C9.28869 11.0416 9.30651 10.9115 9.30664 10.4697C9.30687 9.8943 9.2342 9.60364 8.96091 9.08736C8.7741 8.73443 8.25591 8.21837 7.87651 8.0073C7.2692 7.66946 6.44364 7.57061 5.74625 7.75231ZM6.73984 8.36622V8.36622C6.8287 8.44059 6.88004 8.55051 6.88004 8.66638V9.27269V9.81687C6.88004 9.95216 6.98969 10.0618 7.12498 10.0619L7.52932 10.062C8.08961 10.0621 8.19828 10.0741 8.32234 10.1493C8.61185 10.325 8.54615 10.7349 8.21249 10.8344C8.10396 10.8667 7.73235 10.8797 7.19115 10.8701C6.36345 10.8554 6.33725 10.852 6.22293 10.7451V10.7451C6.14799 10.675 6.10547 10.577 6.10547 10.4743V9.5594V8.66638C6.10547 8.55051 6.15681 8.44059 6.24566 8.36622V8.36622C6.32276 8.30168 6.43393 8.24887 6.49275 8.24887C6.55158 8.24887 6.66275 8.30168 6.73984 8.36622Z" fill="black"/>
</svg>
