<svg width="32" height="32" viewBox="0 0 32 32" fill="none" xmlns="http://www.w3.org/2000/svg">
<rect width="50" height="50" rx="5" fill="#FFF8F6"/>
<path d="M21.6 13.6667V12.3333C21.6 11.598 20.9721 11 20.2 11H11.1C9.9422 11 9 11.8973 9 13V21C9 22.4673 10.2558 23 11.1 23H21.6C22.3721 23 23 22.402 23 21.6667V15C23 14.2647 22.3721 13.6667 21.6 13.6667ZM20.2 19.6667H18.8V17H20.2V19.6667ZM11.1 13.6667C10.9198 13.659 10.7496 13.5854 10.6249 13.4612C10.5002 13.337 10.4306 13.1718 10.4306 13C10.4306 12.8282 10.5002 12.663 10.6249 12.5388C10.7496 12.4146 10.9198 12.341 11.1 12.3333H20.2V13.6667H11.1Z" fill="#DB4723"/>
</svg>
